<mxfile host="www.draw.io" modified="2020-01-09T23:52:32.679Z" agent="Mozilla/5.0 (Macintosh; Intel Mac OS X 10.15; rv:71.0) Gecko/20100101 Firefox/71.0" etag="hsxcdF4IR6tybKe06VJ7" version="12.5.1" type="github">
  <diagram id="L-ai7fAyJBnf2PLU2uu1" name="Page-1">
    <mxGraphModel dx="946" dy="640" grid="1" gridSize="10" guides="1" tooltips="1" connect="1" arrows="1" fold="1" page="1" pageScale="1" pageWidth="850" pageHeight="1100" math="0" shadow="0">
      <root>
        <mxCell id="0"/>
        <mxCell id="1" parent="0"/>
        <mxCell id="LJsphAcHxgrP_2_Ti7BV-1" value="M1" style="ellipse;whiteSpace=wrap;html=1;aspect=fixed;fillColor=#ffe6cc;strokeColor=#d79b00;" parent="1" vertex="1">
          <mxGeometry x="120" y="180" width="60" height="60" as="geometry"/>
        </mxCell>
        <mxCell id="LJsphAcHxgrP_2_Ti7BV-2" value="M2" style="ellipse;whiteSpace=wrap;html=1;aspect=fixed;fillColor=#d5e8d4;strokeColor=#82b366;" parent="1" vertex="1">
          <mxGeometry x="230" y="180" width="60" height="60" as="geometry"/>
        </mxCell>
        <mxCell id="LJsphAcHxgrP_2_Ti7BV-3" value="M3" style="ellipse;whiteSpace=wrap;html=1;aspect=fixed;fillColor=#fff2cc;strokeColor=#d6b656;" parent="1" vertex="1">
          <mxGeometry x="340" y="180" width="60" height="60" as="geometry"/>
        </mxCell>
        <mxCell id="LJsphAcHxgrP_2_Ti7BV-4" value="S1" style="rhombus;whiteSpace=wrap;html=1;fillColor=#dae8fc;strokeColor=#6c8ebf;" parent="1" vertex="1">
          <mxGeometry x="460" y="180" width="60" height="60" as="geometry"/>
        </mxCell>
        <mxCell id="LJsphAcHxgrP_2_Ti7BV-5" value="S2" style="rhombus;whiteSpace=wrap;html=1;fillColor=#f8cecc;strokeColor=#b85450;" parent="1" vertex="1">
          <mxGeometry x="560" y="180" width="60" height="60" as="geometry"/>
        </mxCell>
        <mxCell id="LJsphAcHxgrP_2_Ti7BV-6" value="S3" style="rhombus;whiteSpace=wrap;html=1;fillColor=#e1d5e7;strokeColor=#9673a6;" parent="1" vertex="1">
          <mxGeometry x="660" y="180" width="60" height="60" as="geometry"/>
        </mxCell>
        <mxCell id="D1XfDUeKwlj6QDrGRqhB-1" value="BASE" style="rounded=0;whiteSpace=wrap;html=1;fillColor=#ffe6cc;strokeColor=#d79b00;" parent="1" vertex="1">
          <mxGeometry x="105" y="100" width="90" height="60" as="geometry"/>
        </mxCell>
        <mxCell id="D1XfDUeKwlj6QDrGRqhB-5" value="SHOULDER" style="rounded=0;whiteSpace=wrap;html=1;fillColor=#d5e8d4;strokeColor=#82b366;" parent="1" vertex="1">
          <mxGeometry x="215" y="100" width="90" height="60" as="geometry"/>
        </mxCell>
        <mxCell id="D1XfDUeKwlj6QDrGRqhB-6" value="ELBOW" style="rounded=0;whiteSpace=wrap;html=1;fillColor=#fff2cc;strokeColor=#d6b656;" parent="1" vertex="1">
          <mxGeometry x="325" y="100" width="90" height="60" as="geometry"/>
        </mxCell>
        <mxCell id="D1XfDUeKwlj6QDrGRqhB-7" value="WRIST1" style="rounded=0;whiteSpace=wrap;html=1;fillColor=#dae8fc;strokeColor=#6c8ebf;" parent="1" vertex="1">
          <mxGeometry x="445" y="100" width="90" height="60" as="geometry"/>
        </mxCell>
        <mxCell id="D1XfDUeKwlj6QDrGRqhB-8" value="WRIST2" style="rounded=0;whiteSpace=wrap;html=1;fillColor=#f8cecc;strokeColor=#b85450;" parent="1" vertex="1">
          <mxGeometry x="545" y="100" width="90" height="60" as="geometry"/>
        </mxCell>
        <mxCell id="D1XfDUeKwlj6QDrGRqhB-9" value="WRIST3" style="rounded=0;whiteSpace=wrap;html=1;fillColor=#e1d5e7;strokeColor=#9673a6;" parent="1" vertex="1">
          <mxGeometry x="645" y="100" width="90" height="60" as="geometry"/>
        </mxCell>
        <mxCell id="D1XfDUeKwlj6QDrGRqhB-16" style="edgeStyle=orthogonalEdgeStyle;rounded=0;orthogonalLoop=1;jettySize=auto;html=1;exitX=0.5;exitY=0;exitDx=0;exitDy=0;entryX=0.5;entryY=1;entryDx=0;entryDy=0;endArrow=none;endFill=0;" parent="1" source="D1XfDUeKwlj6QDrGRqhB-10" target="D1XfDUeKwlj6QDrGRqhB-12" edge="1">
          <mxGeometry relative="1" as="geometry"/>
        </mxCell>
        <mxCell id="D1XfDUeKwlj6QDrGRqhB-10" value="I2C BUS" style="rounded=0;whiteSpace=wrap;html=1;" parent="1" vertex="1">
          <mxGeometry x="120" y="320" width="280" height="20" as="geometry"/>
        </mxCell>
        <mxCell id="D1XfDUeKwlj6QDrGRqhB-15" style="edgeStyle=orthogonalEdgeStyle;rounded=0;orthogonalLoop=1;jettySize=auto;html=1;exitX=0.5;exitY=1;exitDx=0;exitDy=0;entryX=0.109;entryY=-0.06;entryDx=0;entryDy=0;entryPerimeter=0;endArrow=none;endFill=0;" parent="1" source="D1XfDUeKwlj6QDrGRqhB-11" target="D1XfDUeKwlj6QDrGRqhB-10" edge="1">
          <mxGeometry relative="1" as="geometry"/>
        </mxCell>
        <mxCell id="D1XfDUeKwlj6QDrGRqhB-11" value="ST32&lt;br&gt;ADDR 1" style="rounded=1;whiteSpace=wrap;html=1;" parent="1" vertex="1">
          <mxGeometry x="120" y="250" width="60" height="50" as="geometry"/>
        </mxCell>
        <mxCell id="D1XfDUeKwlj6QDrGRqhB-12" value="ST32&lt;br&gt;ADDR 2" style="rounded=1;whiteSpace=wrap;html=1;" parent="1" vertex="1">
          <mxGeometry x="230" y="250" width="60" height="50" as="geometry"/>
        </mxCell>
        <mxCell id="D1XfDUeKwlj6QDrGRqhB-17" style="edgeStyle=orthogonalEdgeStyle;rounded=0;orthogonalLoop=1;jettySize=auto;html=1;exitX=0.5;exitY=1;exitDx=0;exitDy=0;entryX=0.898;entryY=-0.012;entryDx=0;entryDy=0;entryPerimeter=0;endArrow=none;endFill=0;" parent="1" source="D1XfDUeKwlj6QDrGRqhB-13" target="D1XfDUeKwlj6QDrGRqhB-10" edge="1">
          <mxGeometry relative="1" as="geometry"/>
        </mxCell>
        <mxCell id="D1XfDUeKwlj6QDrGRqhB-13" value="ST32&lt;br&gt;ADDR 3" style="rounded=1;whiteSpace=wrap;html=1;" parent="1" vertex="1">
          <mxGeometry x="340" y="250" width="60" height="50" as="geometry"/>
        </mxCell>
        <mxCell id="D1XfDUeKwlj6QDrGRqhB-18" value="???" style="rounded=0;whiteSpace=wrap;html=1;" parent="1" vertex="1">
          <mxGeometry x="455" y="320" width="280" height="20" as="geometry"/>
        </mxCell>
        <mxCell id="D1XfDUeKwlj6QDrGRqhB-19" value="&lt;font style=&quot;font-size: 17px&quot;&gt;&amp;nbsp; &amp;nbsp;Rasberry Pi&lt;br&gt;&lt;/font&gt;&lt;br&gt;&lt;br&gt;&lt;br&gt;&lt;br&gt;&lt;br&gt;&lt;br&gt;&lt;br&gt;&lt;br&gt;&lt;br&gt;&lt;br&gt;&lt;br&gt;&lt;br&gt;&lt;br&gt;&lt;br&gt;&lt;br&gt;" style="rounded=0;whiteSpace=wrap;html=1;align=left;" parent="1" vertex="1">
          <mxGeometry x="120" y="400" width="620" height="270" as="geometry"/>
        </mxCell>
        <mxCell id="apjiKr91aq642XJbR5rP-3" style="edgeStyle=orthogonalEdgeStyle;rounded=0;orthogonalLoop=1;jettySize=auto;html=1;exitX=0.75;exitY=0;exitDx=0;exitDy=0;entryX=0.5;entryY=1;entryDx=0;entryDy=0;" edge="1" parent="1" source="D1XfDUeKwlj6QDrGRqhB-24" target="D1XfDUeKwlj6QDrGRqhB-18">
          <mxGeometry relative="1" as="geometry"/>
        </mxCell>
        <mxCell id="apjiKr91aq642XJbR5rP-4" style="edgeStyle=orthogonalEdgeStyle;rounded=0;orthogonalLoop=1;jettySize=auto;html=1;exitX=0.25;exitY=0;exitDx=0;exitDy=0;entryX=0.5;entryY=1;entryDx=0;entryDy=0;" edge="1" parent="1" source="D1XfDUeKwlj6QDrGRqhB-24" target="D1XfDUeKwlj6QDrGRqhB-10">
          <mxGeometry relative="1" as="geometry"/>
        </mxCell>
        <mxCell id="D1XfDUeKwlj6QDrGRqhB-24" value="Robot Operating System (ROS)" style="rounded=1;whiteSpace=wrap;html=1;" parent="1" vertex="1">
          <mxGeometry x="185" y="450" width="490" height="50" as="geometry"/>
        </mxCell>
        <mxCell id="apjiKr91aq642XJbR5rP-6" style="edgeStyle=orthogonalEdgeStyle;rounded=0;orthogonalLoop=1;jettySize=auto;html=1;exitX=0.5;exitY=0;exitDx=0;exitDy=0;entryX=0.5;entryY=1;entryDx=0;entryDy=0;" edge="1" parent="1" source="D1XfDUeKwlj6QDrGRqhB-25" target="D1XfDUeKwlj6QDrGRqhB-26">
          <mxGeometry relative="1" as="geometry"/>
        </mxCell>
        <mxCell id="D1XfDUeKwlj6QDrGRqhB-25" value="Object Detection" style="rounded=1;whiteSpace=wrap;html=1;" parent="1" vertex="1">
          <mxGeometry x="185" y="600" width="490" height="40" as="geometry"/>
        </mxCell>
        <mxCell id="apjiKr91aq642XJbR5rP-5" style="edgeStyle=orthogonalEdgeStyle;rounded=0;orthogonalLoop=1;jettySize=auto;html=1;exitX=0.5;exitY=0;exitDx=0;exitDy=0;entryX=0.5;entryY=1;entryDx=0;entryDy=0;" edge="1" parent="1" source="D1XfDUeKwlj6QDrGRqhB-26" target="D1XfDUeKwlj6QDrGRqhB-24">
          <mxGeometry relative="1" as="geometry"/>
        </mxCell>
        <mxCell id="D1XfDUeKwlj6QDrGRqhB-26" value="3D Enviroment (Motion Planning)" style="rounded=1;whiteSpace=wrap;html=1;" parent="1" vertex="1">
          <mxGeometry x="185" y="530" width="490" height="40" as="geometry"/>
        </mxCell>
        <mxCell id="apjiKr91aq642XJbR5rP-7" style="edgeStyle=orthogonalEdgeStyle;rounded=0;orthogonalLoop=1;jettySize=auto;html=1;exitX=0.5;exitY=0;exitDx=0;exitDy=0;" edge="1" parent="1" source="D1XfDUeKwlj6QDrGRqhB-27" target="D1XfDUeKwlj6QDrGRqhB-25">
          <mxGeometry relative="1" as="geometry"/>
        </mxCell>
        <mxCell id="D1XfDUeKwlj6QDrGRqhB-27" value="Intel Sense Sterographic Camera" style="rounded=1;whiteSpace=wrap;html=1;" parent="1" vertex="1">
          <mxGeometry x="370" y="690" width="120" height="60" as="geometry"/>
        </mxCell>
        <mxCell id="D1XfDUeKwlj6QDrGRqhB-29" value="MoveIt" style="ellipse;whiteSpace=wrap;html=1;" parent="1" vertex="1">
          <mxGeometry x="545" y="450" width="50" height="50" as="geometry"/>
        </mxCell>
        <mxCell id="apjiKr91aq642XJbR5rP-1" style="edgeStyle=orthogonalEdgeStyle;rounded=0;orthogonalLoop=1;jettySize=auto;html=1;exitX=0.5;exitY=1;exitDx=0;exitDy=0;" edge="1" parent="1" source="D1XfDUeKwlj6QDrGRqhB-24" target="D1XfDUeKwlj6QDrGRqhB-24">
          <mxGeometry relative="1" as="geometry"/>
        </mxCell>
        <mxCell id="apjiKr91aq642XJbR5rP-10" style="edgeStyle=orthogonalEdgeStyle;rounded=0;orthogonalLoop=1;jettySize=auto;html=1;exitX=0.5;exitY=0;exitDx=0;exitDy=0;entryX=0.25;entryY=1;entryDx=0;entryDy=0;" edge="1" parent="1" source="apjiKr91aq642XJbR5rP-8" target="D1XfDUeKwlj6QDrGRqhB-25">
          <mxGeometry relative="1" as="geometry"/>
        </mxCell>
        <mxCell id="apjiKr91aq642XJbR5rP-8" value="UI" style="rounded=1;whiteSpace=wrap;html=1;" vertex="1" parent="1">
          <mxGeometry x="185" y="690" width="120" height="60" as="geometry"/>
        </mxCell>
      </root>
    </mxGraphModel>
  </diagram>
</mxfile>
